<svg width="800" height="600.0000000000001" xmlns="http://www.w3.org/2000/svg">

 <g>
  <title>Layer 1</title>
  <rect width="100%" height="100%" fill="lightgray"/>
  <rect id="svg_3" height="118.33307" width="354.99921" y="135.83233" x="169.99873" stroke="#000" fill="none"/>
  <path fill-opacity="0" stroke-dasharray="2,2" id="svg_5" d="m231.86134,197.27829l354.99921,0l0,118.33307l-354.99921,0l0,-118.33307z" opacity="undefined" stroke="#000" fill="#000000"/>
  <path stroke-dasharray="2,2" id="svg_7" d="m169.99774,135.29242l62.14286,62.14286" opacity="undefined" stroke="#000" fill="none"/>
  <line id="svg_8" y2="314.79202" x2="231.04202" y1="253.75" x1="170" stroke="#000" fill="none"/>
  <line id="svg_9" y2="197.56802" x2="587.56802" y1="135" x1="525" stroke="#000" fill="none"/>
  <line id="svg_10" y2="315.41809" x2="585.41809" y1="254.58333" x1="524.58333" stroke="#000" fill="none"/>
  <line stroke="#000" id="svg_11" y2="210.58824" x2="637.25494" y1="210.58824" x1="586.79426" fill="none"/>
  <line stroke="#000" id="svg_12" y2="255.84064" x2="637.65655" y1="255.84064" x1="586.79426" fill="none"/>
  <ellipse ry="23.04336" rx="7.39127" id="svg_13" cy="233.1381" cx="565.60519" stroke="#000" fill="none"/>
  <ellipse ry="23.04336" rx="7.39127" id="svg_16" cy="233.1381" cx="565.60519" stroke="#000" fill="none"/>
  <path id="svg_17" d="m635.65483,210.09474c4.08357,0 7.39127,10.31222 7.39127,23.04336c0,12.73114 -3.30769,23.04336 -7.39127,23.04336" opacity="undefined" stroke="#000" fill="none"/>
  <text xml:space="preserve" text-anchor="start" font-family="Noto Sans JP" font-size="12" stroke-width="0" id="svg_18" y="228.05077" x="668.18953" stroke="#000" fill="#000000">Water in</text>
  <line id="svg_20" y2="315.86939" x2="585.47696" y1="315.86939" x1="231.50923" stroke="#000" fill="none"/>
  <line id="svg_21" y2="315.95876" x2="587.02853" y1="197.07075" x1="587.02853" stroke="#000" fill="none"/>
  <path id="svg_26" d="m242.90765,211.57287c-6.98308,0 -12.63938,-5.6563 -12.63938,-12.63938c0,-6.98308 5.6563,-12.63938 12.63938,-12.63938c6.98308,0 12.63938,5.6563 12.63938,12.63938c0,6.98308 -5.6563,12.63938 -12.63938,12.63938z" opacity="undefined" stroke="#000000" fill="none"/>
  <path id="svg_27" d="m316.25214,211.57286c-6.98308,0 -12.63937,-5.65629 -12.63937,-12.63937c0,-6.98309 5.65629,-12.63938 12.63937,-12.63938c6.98309,0 12.63938,5.65629 12.63938,12.63938c0,6.98308 -5.65629,12.63937 -12.63938,12.63937z" opacity="undefined" stroke="#000000" fill="none"/>
  <path id="svg_28" d="m392.97449,211.57286c-6.98308,0 -12.63937,-5.65629 -12.63937,-12.63937c0,-6.98309 5.65629,-12.63938 12.63937,-12.63938c6.98309,0 12.63938,5.65629 12.63938,12.63938c0,6.98308 -5.65629,12.63937 -12.63938,12.63937z" opacity="undefined" stroke="#000000" fill="none"/>
  <ellipse ry="3.52422" rx="12.5865" id="svg_29" cy="158.30346" cx="405.44294" stroke="#000" fill="none"/>
  <line stroke="#000" id="svg_32" y2="227.6936" x2="417.99471" y1="158.64944" x1="417.99471" fill="none"/>
  <ellipse ry="3.52422" rx="12.5865" id="svg_33" cy="226.96979" cx="405.44294" stroke="#000" fill="none"/>
  <line stroke="#000" id="svg_34" y2="227.6936" x2="392.92384" y1="159.32511" x1="392.92384" fill="none"/>
  <line stroke="#000" stroke-dasharray="5,5" id="svg_35" y2="210.02674" x2="217.15756" y1="210.02674" x1="566.01095" fill="none"/>
  <line stroke="#000" stroke-dasharray="5,5" id="svg_37" y2="256.02373" x2="218.15645" y1="256.02373" x1="566.01095" fill="none"/>
  <ellipse stroke-dasharray="5,5" ry="23.04336" rx="7.39127" id="svg_38" cy="233.1381" cx="217.69851" stroke="#000" fill="none"/>
  <line stroke-dasharray="5,2,2,2" id="svg_41" y2="222.62621" x2="435.04422" y1="188.88847" x1="401.30647" stroke="#000" fill="none"/>
  <path stroke-dasharray="5,2,2,2" id="svg_42" d="m426.30779,245.23296c-6.98308,0 -12.63937,-5.65629 -12.63937,-12.63937c0,-6.98309 5.65629,-12.63938 12.63937,-12.63938c6.98309,0 12.63938,5.65629 12.63938,12.63938c0,6.98308 -5.65629,12.63937 -12.63938,12.63937z" opacity="undefined" stroke="#000000" fill="none"/>
  <line stroke-dasharray="5,2,2,2" id="svg_43" y2="243.56007" x2="419.35795" y1="209.82233" x1="385.62021" stroke="#000" fill="none"/>
  <path id="svg_44" d="m405.97871,164.13067c-10.70943,0 -19.38407,-2.67536 -19.38407,-5.97826c0,-3.30291 8.67464,-5.97826 19.38407,-5.97826c10.70943,0 19.38407,2.67536 19.38407,5.97826c0,3.30291 -8.67464,5.97826 -19.38407,5.97826z" opacity="undefined" stroke="#000" fill-opacity="0" fill="#000000"/>
  <line id="svg_49" y2="157.65488" x2="425.16857" y1="95.64582" x1="425.16857" fill-opacity="0" stroke="#000" fill="none"/>
  <line id="svg_50" y2="157.65488" x2="386.76489" y1="95.64582" x1="386.76489" fill-opacity="0" stroke="#000" fill="none"/>
  <path id="svg_52" d="m425.32396,104.03736c0,6.52676 -13.51971,6.83756 -19.11408,6.83756c-5.59436,0 -19.58027,-1.24319 -19.42487,-5.12817" opacity="NaN" fill-opacity="0" stroke="#C48157" fill="none"/>
  <path id="svg_53" d="m425.32396,111.69145c0,6.52676 -13.51971,6.83756 -19.11407,6.83756c-5.59436,0 -19.58027,-1.24319 -19.42487,-5.12817" opacity="NaN" fill-opacity="0" stroke="#C48157" fill="none"/>
  <path id="svg_54" d="m425.32396,108.08072c0,6.52676 -13.51971,6.83756 -19.11407,6.83756c-5.59436,0 -19.58027,-1.24319 -19.42487,-5.12817" opacity="NaN" fill-opacity="0" stroke="#C48157" fill="none"/>
  <path id="svg_55" d="m425.32396,115.73481c0,6.52676 -13.51971,6.83756 -19.11407,6.83756c-5.59436,0 -19.58027,-1.24319 -19.42487,-5.12817" opacity="NaN" fill-opacity="0" stroke="#C48157" fill="none"/>
  <path id="svg_56" d="m425.32396,120.21752c0,6.52676 -13.51971,6.83756 -19.11407,6.83756c-5.59436,0 -19.58027,-1.24319 -19.42487,-5.12817" opacity="NaN" fill-opacity="0" stroke="#C48157" fill="none"/>
  <path id="svg_57" d="m425.32396,127.87161c0,6.52676 -13.51971,6.83756 -19.11407,6.83756c-5.59436,0 -19.58027,-1.24319 -19.42487,-5.12817" opacity="NaN" fill-opacity="0" stroke="#C48157" fill="none"/>
  <path id="svg_58" d="m425.32396,124.26088c0,6.52676 -13.51971,6.83756 -19.11407,6.83756c-5.59436,0 -19.58027,-1.24319 -19.42487,-5.12817" opacity="NaN" fill-opacity="0" stroke="#C48157" fill="none"/>
  <path id="svg_59" d="m425.32396,131.91497c0,6.52676 -13.51971,6.83756 -19.11407,6.83756c-5.59436,0 -19.58027,-1.24319 -19.42487,-5.12817" opacity="NaN" fill-opacity="0" stroke="#C48157" fill="none"/>
  <path id="svg_60" d="m425.32396,135.21645c0,6.52676 -13.51971,6.83756 -19.11407,6.83756c-5.59436,0 -19.58027,-1.24319 -19.42487,-5.12817" opacity="NaN" fill-opacity="0" stroke="#C48157" fill="none"/>
  <path id="svg_61" d="m425.32396,142.87054c0,6.52676 -13.51971,6.83756 -19.11407,6.83756c-5.59436,0 -19.58027,-1.24319 -19.42487,-5.12817" opacity="NaN" fill-opacity="0" stroke="#C48157" fill="none"/>
  <path id="svg_62" d="m425.32396,139.25981c0,6.52676 -13.51971,6.83756 -19.11407,6.83756c-5.59436,0 -19.58027,-1.24319 -19.42487,-5.12817" opacity="NaN" fill-opacity="0" stroke="#C48157" fill="none"/>
  <path id="svg_63" d="m425.32396,146.9139c0,6.52676 -13.51971,6.83756 -19.11407,6.83756c-5.59436,0 -19.58027,-1.24319 -19.42487,-5.12817" opacity="NaN" fill-opacity="0" stroke="#C48157" fill="none"/>
  <path id="svg_64" d="m410.55727,89.52984l-18.74669,-18.74669" opacity="undefined" stroke="#C48157" fill-opacity="0" fill="none"/>
  <line stroke="#C48157" id="svg_65" y2="131.90868" x2="369.79003" y1="148.79626" x1="386.67761" fill-opacity="0" fill="none"/>
  <path id="svg_45" d="m405.97871,101.27276c-10.70943,0 -19.38407,-2.67536 -19.38407,-5.97826c0,-3.30291 8.67464,-5.97827 19.38407,-5.97827c10.70943,0 19.38407,2.67536 19.38407,5.97827c0,3.3029 -8.67464,5.97826 -19.38407,5.97826z" opacity="undefined" stroke="#000" fill-opacity="0" fill="#000000"/>
  <path id="svg_66" d="m392.97449,211.57286c-6.98308,0 -12.63937,-5.65629 -12.63937,-12.63937c0,-6.98309 5.65629,-12.63938 12.63937,-12.63938c6.98309,0 12.63938,5.65629 12.63938,12.63938c0,6.98308 -5.65629,12.63937 -12.63938,12.63937z" opacity="undefined" stroke="#000000" fill="none"/>
  <ellipse ry="3.52422" rx="12.5865" id="svg_67" cy="158.30346" cx="405.44294" stroke="#000" fill="none"/>
  <line stroke="#000" id="svg_68" y2="227.6936" x2="417.99471" y1="158.64944" x1="417.99471" fill="none"/>
  <ellipse ry="3.52422" rx="12.5865" id="svg_69" cy="226.96979" cx="405.44294" stroke="#000" fill="none"/>
  <path id="svg_70" d="m392.92384,159.32511l0,68.36849" opacity="undefined" stroke="#000" fill="none"/>
  <line stroke-dasharray="5,2,2,2" id="svg_71" y2="222.62621" x2="435.04422" y1="188.88847" x1="401.30647" stroke="#000" fill="none"/>
  <path stroke-dasharray="5,2,2,2" id="svg_72" d="m426.30779,245.23296c-6.98308,0 -12.63937,-5.65629 -12.63937,-12.63937c0,-6.98309 5.65629,-12.63938 12.63937,-12.63938c6.98309,0 12.63938,5.65629 12.63938,12.63938c0,6.98308 -5.65629,12.63937 -12.63938,12.63937z" opacity="undefined" stroke="#000000" fill="none"/>
  <line stroke-dasharray="5,2,2,2" id="svg_73" y2="243.56007" x2="419.35795" y1="209.82233" x1="385.62021" stroke="#000" fill="none"/>
  <path id="svg_74" d="m405.97871,164.13067c-10.70943,0 -19.38407,-2.67536 -19.38407,-5.97826c0,-3.30291 8.67464,-5.97827 19.38407,-5.97827c10.70943,0 19.38407,2.67536 19.38407,5.97827c0,3.3029 -8.67464,5.97826 -19.38407,5.97826z" opacity="undefined" stroke="#000" fill-opacity="0" fill="#000000"/>
  <line id="svg_75" y2="157.65488" x2="425.16857" y1="95.64582" x1="425.16857" fill-opacity="0" stroke="#000" fill="none"/>
  <line id="svg_76" y2="157.65488" x2="386.76489" y1="95.64582" x1="386.76489" fill-opacity="0" stroke="#000" fill="none"/>
  <path id="svg_77" d="m425.32396,104.03736c0,6.52676 -13.51971,6.83756 -19.11407,6.83756c-5.59436,0 -19.58027,-1.24319 -19.42487,-5.12817" opacity="NaN" fill-opacity="0" stroke="#C48157" fill="none"/>
  <path id="svg_78" d="m425.32396,111.69145c0,6.52676 -13.51971,6.83756 -19.11407,6.83756c-5.59436,0 -19.58027,-1.24319 -19.42487,-5.12817" opacity="NaN" fill-opacity="0" stroke="#C48157" fill="none"/>
  <path id="svg_79" d="m425.32396,108.08072c0,6.52676 -13.51971,6.83756 -19.11407,6.83756c-5.59436,0 -19.58027,-1.24319 -19.42487,-5.12817" opacity="NaN" fill-opacity="0" stroke="#C48157" fill="none"/>
  <path id="svg_80" d="m425.32396,115.73481c0,6.52676 -13.51971,6.83756 -19.11407,6.83756c-5.59436,0 -19.58027,-1.24319 -19.42487,-5.12817" opacity="NaN" fill-opacity="0" stroke="#C48157" fill="none"/>
  <path id="svg_81" d="m425.32396,120.21752c0,6.52676 -13.51971,6.83756 -19.11407,6.83756c-5.59436,0 -19.58027,-1.24319 -19.42487,-5.12817" opacity="NaN" fill-opacity="0" stroke="#C48157" fill="none"/>
  <path id="svg_82" d="m425.32396,127.87161c0,6.52676 -13.51971,6.83756 -19.11407,6.83756c-5.59436,0 -19.58027,-1.24319 -19.42487,-5.12817" opacity="NaN" fill-opacity="0" stroke="#C48157" fill="none"/>
  <path id="svg_83" d="m425.32396,124.26088c0,6.52676 -13.51971,6.83756 -19.11407,6.83756c-5.59436,0 -19.58027,-1.24319 -19.42487,-5.12817" opacity="NaN" fill-opacity="0" stroke="#C48157" fill="none"/>
  <path id="svg_84" d="m425.32396,131.91497c0,6.52676 -13.51971,6.83756 -19.11407,6.83756c-5.59436,0 -19.58027,-1.24319 -19.42487,-5.12817" opacity="NaN" fill-opacity="0" stroke="#C48157" fill="none"/>
  <path id="svg_85" d="m425.32396,135.21645c0,6.52676 -13.51971,6.83756 -19.11407,6.83756c-5.59436,0 -19.58027,-1.24319 -19.42487,-5.12817" opacity="NaN" fill-opacity="0" stroke="#C48157" fill="none"/>
  <path id="svg_86" d="m425.32396,142.87054c0,6.52676 -13.51971,6.83756 -19.11407,6.83756c-5.59436,0 -19.58027,-1.24319 -19.42487,-5.12817" opacity="NaN" fill-opacity="0" stroke="#C48157" fill="none"/>
  <path id="svg_87" d="m425.32396,139.25981c0,6.52676 -13.51971,6.83756 -19.11407,6.83756c-5.59436,0 -19.58027,-1.24319 -19.42487,-5.12817" opacity="NaN" fill-opacity="0" stroke="#C48157" fill="none"/>
  <path id="svg_88" d="m425.32396,146.9139c0,6.52676 -13.51971,6.83756 -19.11407,6.83756c-5.59436,0 -19.58027,-1.24319 -19.42487,-5.12817" opacity="undefined" stroke-dasharray="2,2" stroke="#000" fill-opacity="0" fill="#000000"/>
  <path id="svg_89" d="m410.55727,89.52984l-18.74669,-18.74669" opacity="undefined" stroke="#C48157" fill-opacity="0" fill="none"/>
  <line stroke="#C48157" id="svg_90" y2="131.90868" x2="369.79003" y1="148.79626" x1="386.67761" fill-opacity="0" fill="none"/>
  <path id="svg_91" d="m405.97871,101.27276c-10.70943,0 -19.38407,-2.67536 -19.38407,-5.97826c0,-3.30291 8.67464,-5.97827 19.38407,-5.97827c10.70943,0 19.38407,2.67536 19.38407,5.97827c0,3.3029 -8.67464,5.97826 -19.38407,5.97826z" opacity="undefined" stroke="#000" fill-opacity="0" fill="#000000"/>
  <ellipse ry="3.52422" rx="12.5865" id="svg_92" cy="158.30346" cx="328.4352" stroke="#000" fill="none"/>
  <line stroke="#000" id="svg_93" y2="227.6936" x2="340.98697" y1="158.64944" x1="340.98697" fill="none"/>
  <ellipse ry="3.52422" rx="12.5865" id="svg_94" cy="226.96979" cx="328.4352" stroke="#000" fill="none"/>
  <line stroke-dasharray="5,2,2,2" id="svg_95" y2="222.62621" x2="358.03647" y1="188.88847" x1="324.29873" stroke="#000" fill="none"/>
  <path stroke-dasharray="5,2,2,2" id="svg_96" d="m349.30005,245.23296c-6.98308,0 -12.63937,-5.65629 -12.63937,-12.63937c0,-6.98309 5.65629,-12.63938 12.63937,-12.63938c6.98309,0 12.63938,5.65629 12.63938,12.63938c0,6.98308 -5.65629,12.63937 -12.63938,12.63937z" opacity="undefined" stroke="#000000" fill="none"/>
  <line stroke-dasharray="5,2,2,2" id="svg_97" y2="243.56007" x2="342.35021" y1="209.82233" x1="308.61247" stroke="#000" fill="none"/>
  <path id="svg_98" d="m328.97097,164.13067c-10.70943,0 -19.38407,-2.67536 -19.38407,-5.97826c0,-3.30291 8.67464,-5.97827 19.38407,-5.97827c10.70943,0 19.38407,2.67536 19.38407,5.97827c0,3.3029 -8.67464,5.97826 -19.38407,5.97826z" opacity="undefined" stroke="#000" fill-opacity="0" fill="#000000"/>
  <line id="svg_99" y2="157.65488" x2="348.16082" y1="95.64582" x1="348.16082" fill-opacity="0" stroke="#000" fill="none"/>
  <path id="svg_100" d="m348.31622,104.03736c0,6.52676 -13.51971,6.83756 -19.11407,6.83756c-5.59436,0 -19.58027,-1.24319 -19.42487,-5.12817" opacity="NaN" fill-opacity="0" stroke="#C48157" fill="none"/>
  <path id="svg_101" d="m348.31622,111.69145c0,6.52676 -13.51971,6.83756 -19.11407,6.83756c-5.59436,0 -19.58027,-1.24319 -19.42487,-5.12817" opacity="NaN" fill-opacity="0" stroke="#C48157" fill="none"/>
  <path id="svg_102" d="m348.31622,108.08072c0,6.52676 -13.51971,6.83756 -19.11407,6.83756c-5.59436,0 -19.58027,-1.24319 -19.42487,-5.12817" opacity="NaN" fill-opacity="0" stroke="#C48157" fill="none"/>
  <path id="svg_103" d="m348.31622,115.73481c0,6.52676 -13.51971,6.83756 -19.11407,6.83756c-5.59436,0 -19.58027,-1.24319 -19.42487,-5.12817" opacity="NaN" fill-opacity="0" stroke="#C48157" fill="none"/>
  <path id="svg_104" d="m348.31622,120.21752c0,6.52676 -13.51971,6.83756 -19.11407,6.83756c-5.59436,0 -19.58027,-1.24319 -19.42487,-5.12817" opacity="NaN" fill-opacity="0" stroke="#C48157" fill="none"/>
  <path id="svg_105" d="m348.31622,127.87161c0,6.52676 -13.51971,6.83756 -19.11407,6.83756c-5.59436,0 -19.58027,-1.24319 -19.42487,-5.12817" opacity="NaN" fill-opacity="0" stroke="#C48157" fill="none"/>
  <path id="svg_106" d="m348.31622,124.26088c0,6.52676 -13.51971,6.83756 -19.11407,6.83756c-5.59436,0 -19.58027,-1.24319 -19.42487,-5.12817" opacity="NaN" fill-opacity="0" stroke="#C48157" fill="none"/>
  <path id="svg_107" d="m348.31622,131.91497c0,6.52676 -13.51971,6.83756 -19.11407,6.83756c-5.59436,0 -19.58027,-1.24319 -19.42487,-5.12817" opacity="NaN" fill-opacity="0" stroke="#C48157" fill="none"/>
  <path id="svg_108" d="m348.31622,135.21645c0,6.52676 -13.51971,6.83756 -19.11407,6.83756c-5.59436,0 -19.58027,-1.24319 -19.42487,-5.12817" opacity="NaN" fill-opacity="0" stroke="#C48157" fill="none"/>
  <path id="svg_109" d="m348.31622,142.87054c0,6.52676 -13.51971,6.83756 -19.11407,6.83756c-5.59436,0 -19.58027,-1.24319 -19.42487,-5.12817" opacity="NaN" fill-opacity="0" stroke="#C48157" fill="none"/>
  <path id="svg_110" d="m348.31622,139.25981c0,6.52676 -13.51971,6.83756 -19.11407,6.83756c-5.59436,0 -19.58027,-1.24319 -19.42487,-5.12817" opacity="NaN" fill-opacity="0" stroke="#C48157" fill="none"/>
  <path id="svg_111" d="m348.31622,146.9139c0,6.52676 -13.51971,6.83756 -19.11407,6.83756c-5.59436,0 -19.58027,-1.24319 -19.42487,-5.12817" opacity="NaN" fill-opacity="0" stroke="#C48157" fill="none"/>
  <path id="svg_112" d="m328.97097,101.27276c-10.70943,0 -19.38407,-2.67536 -19.38407,-5.97826c0,-3.30291 8.67464,-5.97827 19.38407,-5.97827c10.70943,0 19.38407,2.67536 19.38407,5.97827c0,3.3029 -8.67464,5.97826 -19.38407,5.97826z" opacity="undefined" stroke="#000" fill-opacity="0" fill="#000000"/>
  <ellipse ry="3.52422" rx="12.5865" id="svg_113" cy="158.30346" cx="328.4352" stroke="#000" fill="none"/>
  <line stroke="#000" id="svg_114" y2="227.6936" x2="340.98697" y1="158.64944" x1="340.98697" fill="none"/>
  <ellipse ry="3.52422" rx="12.5865" id="svg_115" cy="226.96979" cx="328.4352" stroke="#000" fill="none"/>
  <path id="svg_116" d="m315.9161,159.32511l0,68.36849" opacity="undefined" stroke="#000" fill="none"/>
  <line stroke-dasharray="5,2,2,2" id="svg_117" y2="222.62621" x2="358.03647" y1="188.88847" x1="324.29873" stroke="#000" fill="none"/>
  <path stroke-dasharray="5,2,2,2" id="svg_118" d="m349.30005,245.23296c-6.98308,0 -12.63937,-5.65629 -12.63937,-12.63937c0,-6.98309 5.65629,-12.63938 12.63937,-12.63938c6.98309,0 12.63938,5.65629 12.63938,12.63938c0,6.98308 -5.65629,12.63937 -12.63938,12.63937z" opacity="undefined" stroke="#000000" fill="none"/>
  <line stroke-dasharray="5,2,2,2" id="svg_119" y2="243.56007" x2="342.35021" y1="209.82233" x1="308.61247" stroke="#000" fill="none"/>
  <path id="svg_120" d="m328.97097,164.13067c-10.70943,0 -19.38407,-2.67536 -19.38407,-5.97826c0,-3.30291 8.67464,-5.97827 19.38407,-5.97827c10.70943,0 19.38407,2.67536 19.38407,5.97827c0,3.3029 -8.67464,5.97826 -19.38407,5.97826z" opacity="undefined" stroke="#000" fill-opacity="0" fill="#000000"/>
  <line id="svg_121" y2="157.65488" x2="348.16082" y1="95.64582" x1="348.16082" fill-opacity="0" stroke="#000" fill="none"/>
  <path id="svg_122" d="m348.31622,104.03736c0,6.52676 -13.51971,6.83756 -19.11407,6.83756c-5.59436,0 -19.58027,-1.24319 -19.42487,-5.12817" opacity="NaN" fill-opacity="0" stroke="#C48157" fill="none"/>
  <path id="svg_123" d="m348.31622,111.69145c0,6.52676 -13.51971,6.83756 -19.11407,6.83756c-5.59436,0 -19.58027,-1.24319 -19.42487,-5.12817" opacity="NaN" fill-opacity="0" stroke="#C48157" fill="none"/>
  <path id="svg_124" d="m348.31622,108.08072c0,6.52676 -13.51971,6.83756 -19.11407,6.83756c-5.59436,0 -19.58027,-1.24319 -19.42487,-5.12817" opacity="NaN" fill-opacity="0" stroke="#C48157" fill="none"/>
  <path id="svg_125" d="m348.31622,115.73481c0,6.52676 -13.51971,6.83756 -19.11407,6.83756c-5.59436,0 -19.58027,-1.24319 -19.42487,-5.12817" opacity="NaN" fill-opacity="0" stroke="#C48157" fill="none"/>
  <path id="svg_126" d="m348.31622,120.21752c0,6.52676 -13.51971,6.83756 -19.11407,6.83756c-5.59436,0 -19.58027,-1.24319 -19.42487,-5.12817" opacity="NaN" fill-opacity="0" stroke="#C48157" fill="none"/>
  <path id="svg_127" d="m348.31622,127.87161c0,6.52676 -13.51971,6.83756 -19.11407,6.83756c-5.59436,0 -19.58027,-1.24319 -19.42487,-5.12817" opacity="NaN" fill-opacity="0" stroke="#C48157" fill="none"/>
  <path id="svg_128" d="m348.31622,124.26088c0,6.52676 -13.51971,6.83756 -19.11407,6.83756c-5.59436,0 -19.58027,-1.24319 -19.42487,-5.12817" opacity="NaN" fill-opacity="0" stroke="#C48157" fill="none"/>
  <path id="svg_129" d="m348.31622,131.91497c0,6.52676 -13.51971,6.83756 -19.11407,6.83756c-5.59436,0 -19.58027,-1.24319 -19.42487,-5.12817" opacity="NaN" fill-opacity="0" stroke="#C48157" fill="none"/>
  <path id="svg_130" d="m348.31622,135.21645c0,6.52676 -13.51971,6.83756 -19.11407,6.83756c-5.59436,0 -19.58027,-1.24319 -19.42487,-5.12817" opacity="NaN" fill-opacity="0" stroke="#C48157" fill="none"/>
  <path id="svg_131" d="m348.31622,142.87054c0,6.52676 -13.51971,6.83756 -19.11407,6.83756c-5.59436,0 -19.58027,-1.24319 -19.42487,-5.12817" opacity="NaN" fill-opacity="0" stroke="#C48157" fill="none"/>
  <path id="svg_132" d="m348.31622,139.25981c0,6.52676 -13.51971,6.83756 -19.11407,6.83756c-5.59436,0 -19.58027,-1.24319 -19.42487,-5.12817" opacity="NaN" fill-opacity="0" stroke="#C48157" fill="none"/>
  <path id="svg_133" d="m348.31622,146.9139c0,6.52676 -13.51971,6.83756 -19.11407,6.83756c-5.59436,0 -19.58027,-1.24319 -19.42487,-5.12817" opacity="undefined" stroke-dasharray="2,2" stroke="#000" fill-opacity="0" fill="#000000"/>
  <path id="svg_134" d="m333.54953,89.52984l-18.74669,-18.74669" opacity="undefined" stroke="#C48157" fill-opacity="0" fill="none"/>
  <line stroke="#C48157" id="svg_135" y2="131.90868" x2="292.78228" y1="148.79626" x1="309.66986" fill-opacity="0" fill="none"/>
  <path id="svg_136" d="m328.97097,101.27276c-10.70943,0 -19.38407,-2.67536 -19.38407,-5.97826c0,-3.30291 8.67464,-5.97827 19.38407,-5.97827c10.70943,0 19.38407,2.67536 19.38407,5.97827c0,3.3029 -8.67464,5.97826 -19.38407,5.97826z" opacity="undefined" stroke="#000" fill-opacity="0" fill="#000000"/>
  <ellipse ry="3.52422" rx="12.5865" id="svg_137" cy="158.30346" cx="255.20901" stroke="#000" fill="none"/>
  <line stroke="#000" id="svg_138" y2="227.6936" x2="267.76078" y1="158.64944" x1="267.76078" fill="none"/>
  <ellipse ry="3.52422" rx="12.5865" id="svg_139" cy="226.96979" cx="255.20901" stroke="#000" fill="none"/>
  <line stroke-dasharray="5,2,2,2" id="svg_140" y2="222.62621" x2="284.81028" y1="188.88847" x1="251.07254" stroke="#000" fill="none"/>
  <path stroke-dasharray="5,2,2,2" id="svg_141" d="m276.07386,245.23296c-6.98308,0 -12.63937,-5.65629 -12.63937,-12.63937c0,-6.98309 5.65629,-12.63938 12.63937,-12.63938c6.98309,0 12.63938,5.65629 12.63938,12.63938c0,6.98308 -5.65629,12.63937 -12.63938,12.63937z" opacity="undefined" stroke="#000000" fill="none"/>
  <line stroke-dasharray="5,2,2,2" id="svg_142" y2="243.56007" x2="269.12402" y1="209.82233" x1="235.38628" stroke="#000" fill="none"/>
  <path id="svg_143" d="m255.74478,164.13067c-10.70943,0 -19.38407,-2.67536 -19.38407,-5.97826c0,-3.30291 8.67464,-5.97827 19.38407,-5.97827c10.70943,0 19.38407,2.67536 19.38407,5.97827c0,3.3029 -8.67464,5.97826 -19.38407,5.97826z" opacity="undefined" stroke="#000" fill-opacity="0" fill="#000000"/>
  <line id="svg_144" y2="157.65488" x2="274.93463" y1="95.64582" x1="274.93463" fill-opacity="0" stroke="#000" fill="none"/>
  <path id="svg_145" d="m275.09003,104.03736c0,6.52676 -13.51971,6.83756 -19.11407,6.83756c-5.59436,0 -19.58027,-1.24319 -19.42487,-5.12817" opacity="NaN" fill-opacity="0" stroke="#C48157" fill="none"/>
  <path id="svg_146" d="m275.09003,111.69145c0,6.52676 -13.51971,6.83756 -19.11407,6.83756c-5.59436,0 -19.58027,-1.24319 -19.42487,-5.12817" opacity="NaN" fill-opacity="0" stroke="#C48157" fill="none"/>
  <path id="svg_147" d="m275.09003,108.08072c0,6.52676 -13.51971,6.83756 -19.11407,6.83756c-5.59436,0 -19.58027,-1.24319 -19.42487,-5.12817" opacity="NaN" fill-opacity="0" stroke="#C48157" fill="none"/>
  <path id="svg_148" d="m275.09003,115.73481c0,6.52676 -13.51971,6.83756 -19.11407,6.83756c-5.59436,0 -19.58027,-1.24319 -19.42487,-5.12817" opacity="NaN" fill-opacity="0" stroke="#C48157" fill="none"/>
  <path id="svg_149" d="m275.09003,120.21752c0,6.52676 -13.51971,6.83756 -19.11407,6.83756c-5.59436,0 -19.58027,-1.24319 -19.42487,-5.12817" opacity="NaN" fill-opacity="0" stroke="#C48157" fill="none"/>
  <path id="svg_150" d="m275.09003,127.87161c0,6.52676 -13.51971,6.83756 -19.11407,6.83756c-5.59436,0 -19.58027,-1.24319 -19.42487,-5.12817" opacity="NaN" fill-opacity="0" stroke="#C48157" fill="none"/>
  <path id="svg_151" d="m275.09003,124.26088c0,6.52676 -13.51971,6.83756 -19.11407,6.83756c-5.59436,0 -19.58027,-1.24319 -19.42487,-5.12817" opacity="NaN" fill-opacity="0" stroke="#C48157" fill="none"/>
  <path id="svg_152" d="m275.09003,131.91497c0,6.52676 -13.51971,6.83756 -19.11407,6.83756c-5.59436,0 -19.58027,-1.24319 -19.42487,-5.12817" opacity="NaN" fill-opacity="0" stroke="#C48157" fill="none"/>
  <path id="svg_153" d="m275.09003,135.21645c0,6.52676 -13.51971,6.83756 -19.11407,6.83756c-5.59436,0 -19.58027,-1.24319 -19.42487,-5.12817" opacity="NaN" fill-opacity="0" stroke="#C48157" fill="none"/>
  <path id="svg_154" d="m275.09003,142.87054c0,6.52676 -13.51971,6.83756 -19.11407,6.83756c-5.59436,0 -19.58027,-1.24319 -19.42487,-5.12817" opacity="NaN" fill-opacity="0" stroke="#C48157" fill="none"/>
  <path id="svg_155" d="m275.09003,139.25981c0,6.52676 -13.51971,6.83756 -19.11407,6.83756c-5.59436,0 -19.58027,-1.24319 -19.42487,-5.12817" opacity="NaN" fill-opacity="0" stroke="#C48157" fill="none"/>
  <path id="svg_156" d="m275.09003,146.9139c0,6.52676 -13.51971,6.83756 -19.11407,6.83756c-5.59436,0 -19.58027,-1.24319 -19.42487,-5.12817" opacity="NaN" fill-opacity="0" stroke="#C48157" fill="none"/>
  <path id="svg_157" d="m255.74478,101.27276c-10.70943,0 -19.38407,-2.67536 -19.38407,-5.97826c0,-3.30291 8.67464,-5.97827 19.38407,-5.97827c10.70943,0 19.38407,2.67536 19.38407,5.97827c0,3.3029 -8.67464,5.97826 -19.38407,5.97826z" opacity="undefined" stroke="#000" fill-opacity="0" fill="#000000"/>
  <ellipse ry="3.52422" rx="12.5865" id="svg_158" cy="158.30346" cx="255.20901" stroke="#000" fill="none"/>
  <line stroke="#000" id="svg_159" y2="227.6936" x2="267.76078" y1="158.64944" x1="267.76078" fill="none"/>
  <ellipse ry="3.52422" rx="12.5865" id="svg_160" cy="226.96979" cx="255.20901" stroke="#000" fill="none"/>
  <path id="svg_161" d="m242.68991,159.32511l0,68.36849" opacity="undefined" stroke="#000" fill="none"/>
  <line stroke-dasharray="5,2,2,2" id="svg_162" y2="222.62621" x2="284.81028" y1="188.88847" x1="251.07254" stroke="#000" fill="none"/>
  <path stroke-dasharray="5,2,2,2" id="svg_163" d="m276.07386,245.23296c-6.98308,0 -12.63937,-5.65629 -12.63937,-12.63937c0,-6.98309 5.65629,-12.63938 12.63937,-12.63938c6.98309,0 12.63938,5.65629 12.63938,12.63938c0,6.98308 -5.65629,12.63937 -12.63938,12.63937z" opacity="undefined" stroke="#000000" fill="none"/>
  <line stroke-dasharray="5,2,2,2" id="svg_164" y2="243.56007" x2="269.12402" y1="209.82233" x1="235.38628" stroke="#000" fill="none"/>
  <path id="svg_165" d="m255.74478,164.13067c-10.70943,0 -19.38407,-2.67536 -19.38407,-5.97826c0,-3.30291 8.67464,-5.97827 19.38407,-5.97827c10.70943,0 19.38407,2.67536 19.38407,5.97827c0,3.3029 -8.67464,5.97826 -19.38407,5.97826z" opacity="undefined" stroke="#000" fill-opacity="0" fill="#000000"/>
  <line id="svg_166" y2="157.65488" x2="274.93463" y1="95.64582" x1="274.93463" fill-opacity="0" stroke="#000" fill="none"/>
  <path id="svg_167" d="m275.09003,104.03736c0,6.52676 -13.51971,6.83756 -19.11407,6.83756c-5.59436,0 -19.58027,-1.24319 -19.42487,-5.12817" opacity="NaN" fill-opacity="0" stroke="#C48157" fill="none"/>
  <path id="svg_168" d="m275.09003,111.69145c0,6.52676 -13.51971,6.83756 -19.11407,6.83756c-5.59436,0 -19.58027,-1.24319 -19.42487,-5.12817" opacity="NaN" fill-opacity="0" stroke="#C48157" fill="none"/>
  <path id="svg_169" d="m275.09003,108.08072c0,6.52676 -13.51971,6.83756 -19.11407,6.83756c-5.59436,0 -19.58027,-1.24319 -19.42487,-5.12817" opacity="NaN" fill-opacity="0" stroke="#C48157" fill="none"/>
  <path id="svg_170" d="m275.09003,115.73481c0,6.52676 -13.51971,6.83756 -19.11407,6.83756c-5.59436,0 -19.58027,-1.24319 -19.42487,-5.12817" opacity="NaN" fill-opacity="0" stroke="#C48157" fill="none"/>
  <path id="svg_171" d="m275.09003,120.21752c0,6.52676 -13.51971,6.83756 -19.11407,6.83756c-5.59436,0 -19.58027,-1.24319 -19.42487,-5.12817" opacity="NaN" fill-opacity="0" stroke="#C48157" fill="none"/>
  <path id="svg_172" d="m275.09003,127.87161c0,6.52676 -13.51971,6.83756 -19.11407,6.83756c-5.59436,0 -19.58027,-1.24319 -19.42487,-5.12817" opacity="NaN" fill-opacity="0" stroke="#C48157" fill="none"/>
  <path id="svg_173" d="m275.09003,124.26088c0,6.52676 -13.51971,6.83756 -19.11407,6.83756c-5.59436,0 -19.58027,-1.24319 -19.42487,-5.12817" opacity="NaN" fill-opacity="0" stroke="#C48157" fill="none"/>
  <path id="svg_174" d="m275.09003,131.91497c0,6.52676 -13.51971,6.83756 -19.11407,6.83756c-5.59436,0 -19.58027,-1.24319 -19.42487,-5.12817" opacity="NaN" fill-opacity="0" stroke="#C48157" fill="none"/>
  <path id="svg_175" d="m275.09003,135.21645c0,6.52676 -13.51971,6.83756 -19.11407,6.83756c-5.59436,0 -19.58027,-1.24319 -19.42487,-5.12817" opacity="NaN" fill-opacity="0" stroke="#C48157" fill="none"/>
  <path id="svg_176" d="m275.09003,142.87054c0,6.52676 -13.51971,6.83756 -19.11407,6.83756c-5.59436,0 -19.58027,-1.24319 -19.42487,-5.12817" opacity="NaN" fill-opacity="0" stroke="#C48157" fill="none"/>
  <path id="svg_177" d="m275.09003,139.25981c0,6.52676 -13.51971,6.83756 -19.11407,6.83756c-5.59436,0 -19.58027,-1.24319 -19.42487,-5.12817" opacity="NaN" fill-opacity="0" stroke="#C48157" fill="none"/>
  <path id="svg_178" d="m275.09003,146.9139c0,6.52676 -13.51971,6.83756 -19.11407,6.83756c-5.59436,0 -19.58027,-1.24319 -19.42487,-5.12817" opacity="undefined" stroke-dasharray="2,2" stroke="#000" fill-opacity="0" fill="#000000"/>
  <path id="svg_179" d="m260.32334,89.52984l-18.74669,-18.74669" opacity="undefined" stroke="#C48157" fill-opacity="0" fill="none"/>
  <line stroke="#C48157" id="svg_180" y2="131.90868" x2="219.55609" y1="148.79626" x1="236.44367" fill-opacity="0" fill="none"/>
  <path id="svg_181" d="m255.74478,101.27276c-10.70943,0 -19.38407,-2.67536 -19.38407,-5.97826c0,-3.30291 8.67464,-5.97827 19.38407,-5.97827c10.70943,0 19.38407,2.67536 19.38407,5.97827c0,3.3029 -8.67464,5.97826 -19.38407,5.97826z" opacity="undefined" stroke="#000" fill-opacity="0" fill="#000000"/>
  <line stroke="#000000" id="svg_182" y2="90.7377" x2="152.41339" y1="136.4181" x1="198.09379" fill="none"/>
  <line stroke="#000000" id="svg_183" y2="108.81431" x2="135.17606" y1="144.18151" x1="170.54326" fill="none"/>
  <path transform="rotate(-45.324 141.305 97.1541)" id="svg_184" d="m128.6652,103.47377c0,-6.98309 5.6563,-12.63938 12.63938,-12.63938c6.98308,0 12.63938,5.65629 12.63938,12.63938" opacity="undefined" stroke="#000000" fill="none"/>
  <line id="svg_185" y2="157.6097" x2="236.45153" y1="95.22246" x1="236.45153" stroke="#000000" fill="none"/>
  <line id="svg_186" y2="157.23053" x2="309.76223" y1="95.63202" x1="309.76223" stroke="#000000" fill="none"/>
  <line stroke="#000000" id="svg_190" y2="90.7377" x2="219.77275" y1="107.47613" x1="236.51118" fill="none"/>
  <line stroke="#000000" id="svg_191" y2="108.81431" x2="202.53543" y1="135.44431" x1="229.16542" fill="none"/>
  <path transform="rotate(-45.324 208.664 97.1541)" id="svg_192" d="m196.02456,103.47377c0,-6.98309 5.6563,-12.63938 12.63938,-12.63938c6.98308,0 12.63938,5.65629 12.63938,12.63938" opacity="undefined" stroke="#000000" fill="none"/>
  <line stroke="#000000" id="svg_193" y2="90.7377" x2="300.66006" y1="100.10412" x1="310.02649" fill="none"/>
  <line stroke="#000000" id="svg_194" y2="108.81431" x2="283.42274" y1="135.44431" x1="310.05274" fill="none"/>
  <path transform="rotate(-45.324 289.551 97.1541)" id="svg_195" d="m276.91187,103.47377c0,-6.98309 5.6563,-12.63938 12.63938,-12.63938c6.98308,0 12.63938,5.65629 12.63938,12.63938" opacity="undefined" stroke="#000000" fill="none"/>
  <line stroke-dasharray="2,2" id="svg_199" y2="54.76765" x2="153.99371" y1="92.07215" x1="153.99371" stroke="#000000" fill="none"/>
  <line id="svg_200" y2="53.6775" x2="132.77415" y1="98.9277" x1="132.77415" stroke-dasharray="2,2" stroke="#000000" fill="none"/>
  <line id="svg_202" y2="63.01768" x2="132.7716" y1="63.01768" x1="153.66726" stroke="#000000" fill="none"/>
  <line id="svg_203" y2="57.81193" x2="149.76732" y1="62.36477" x1="154.32017" stroke="#000000" fill="none"/>
  <line id="svg_204" y2="57.46795" x2="138.32388" y1="62.69123" x1="133.10061" stroke="#000000" fill="none"/>
  <line id="svg_205" y2="68.09739" x2="149.56691" y1="63.34414" x1="154.32017" stroke="#000000" fill="none"/>
  <line id="svg_206" y2="68.13921" x2="138.22213" y1="62.69123" x1="132.77415" stroke="#000000" fill="none"/>
  <text style="cursor: move;" xml:space="preserve" text-anchor="start" font-family="Noto Sans JP" font-size="8" stroke-width="0" id="svg_207" y="46.04203" x="133.75352" stroke="#000000" fill="#000000">4-5mm</text>
  <line id="svg_208" y2="217.36831" x2="606.9556" y1="210.77169" x1="613.55222" stroke="#000000" fill="none"/>
  <line id="svg_209" y2="256.09928" x2="613.21925" y1="210.77169" x1="613.21925" stroke="#000000" fill="none"/>
  <line id="svg_210" y2="249.87398" x2="607.37096" y1="255.72227" x1="613.21925" stroke="#000000" fill="none"/>
  <line id="svg_211" y2="217.24427" x2="619.35886" y1="211.10466" x1="613.21925" stroke="#000000" fill="none"/>
  <line id="svg_212" y2="250.22579" x2="618.71573" y1="255.72227" x1="613.21925" stroke="#000000" fill="none"/>
  <text xml:space="preserve" text-anchor="start" font-family="Noto Sans JP" font-size="8" id="svg_213" y="229.08489" x="615.21705" stroke-width="0" stroke="#000000" fill="#000000">12mm</text>
 </g>
</svg>